<svg xmlns="http://www.w3.org/2000/svg" width="94.933" height="94.923" viewBox="0 0 94.933 94.923">
    <defs>
        <style>
            .cls-1{fill:#fff}
        </style>
    </defs>
    <g id="trophy_2_" data-name="trophy (2)">
        <g id="Group_654" data-name="Group 654">
            <g id="Group_653" data-name="Group 653">
                <path id="Path_300" d="M94.929 18.137c-.095-8.057-4.218-12.495-11.611-12.495A26.075 26.075 0 0 0 75.9 6.864c.179-3.293.182-5.326.182-5.427V.027H18.853v1.41c0 .048 0 2.113.186 5.429a26.077 26.077 0 0 0-7.426-1.223C4.221 5.642.1 10.08 0 18.137a38.7 38.7 0 0 0 5.376 20.972 33.929 33.929 0 0 0 11.4 11.361A26.66 26.66 0 0 0 30.5 54.223a23.632 23.632 0 0 0 2.411-.118l.146-.017a21.723 21.723 0 0 0 5.333 4.26 5.551 5.551 0 0 1 2.711 3.7 4.644 4.644 0 0 0 .128 8.908v5.917H33.6v6.175h-7.529v11.9h42.79v-11.9h-7.527v-6.17h-7.629v-5.917a4.644 4.644 0 0 0 .128-8.908 5.551 5.551 0 0 1 2.711-3.7 21.814 21.814 0 0 0 5.336-4.26 23.346 23.346 0 0 0 2.552.133 26.661 26.661 0 0 0 13.721-3.754 33.932 33.932 0 0 0 11.4-11.361 38.7 38.7 0 0 0 5.376-20.974zM73.237 2.846a135.36 135.36 0 0 1-.063 1.923H21.765c-.032-.759-.053-1.408-.067-1.923h51.539zm1.918 12.944a22.209 22.209 0 0 1 6.6-1.277 5.074 5.074 0 0 1 3.98 1.35c.9 1.03 1.187 2.76.86 5.142-1.361 9.926-5.664 17.673-12.115 21.815a15.3 15.3 0 0 1-6.7 2.251c4.295-9.017 6.371-20.331 7.375-29.28zm-53.926 9.82a80.951 80.951 0 0 0 5.691 18.985c.074.16.149.318.224.476a15.306 15.306 0 0 1-6.692-2.25C14 38.678 9.7 30.931 8.334 21.007c-.327-2.383-.038-4.113.86-5.142a5.074 5.074 0 0 1 3.98-1.35 22.223 22.223 0 0 1 6.608 1.278 137.02 137.02 0 0 0 1.447 9.818zM30.5 51.4a23.84 23.84 0 0 1-12.268-3.35c-4.707-2.827-15.627-11.407-15.41-29.88.077-6.533 2.952-9.708 8.791-9.708A24.424 24.424 0 0 1 19.23 9.9c.07.946.149 1.894.236 2.839a23.155 23.155 0 0 0-6.292-1.045c-2.71 0-4.764.779-6.1 2.316-1.462 1.672-1.974 4.155-1.533 7.38a39.707 39.707 0 0 0 4.715 14.516 26.7 26.7 0 0 0 8.672 9.287 18.749 18.749 0 0 0 9.732 2.8l.027.046q.216.379.437.746l.138.228c.14.231.282.459.425.683l.162.25q.146.224.294.445t.287.421l.284.4.133.19zm35.542 34.472v6.258H28.891v-6.258h37.151zM53.706 79.7h4.809v3.355h-22.1V79.7h17.291zm-9.659-2.82v-5.747h6.839v5.745zm10.234-10.391a1.827 1.827 0 0 1-1.825 1.825h-9.979a1.825 1.825 0 1 1 0-3.65h9.979a1.827 1.827 0 0 1 1.825 1.825zm7.052-16.117l-.047.061c-.139.179-.278.355-.419.527l-.1.127q-.232.281-.467.55l-.022.026a19.4 19.4 0 0 1-5.1 4.223A8.382 8.382 0 0 0 51 61.844h-7.069a8.383 8.383 0 0 0-4.172-5.959A19.1 19.1 0 0 1 35 52.056l-.345-.393a31.526 31.526 0 0 1-3.927-5.756l-.369-.681c-6.063-11.714-7.9-28.644-8.449-37.638h51.12c-.024.391-.049.8-.078 1.215v.059q-.047.682-.1 1.367v.04a149.81 149.81 0 0 1-.4 4.332l-.092.867c-1.024 9.183-3.188 20.882-7.751 29.695l-.4.743a33.721 33.721 0 0 1-2.876 4.466zM76.7 48.054A23.837 23.837 0 0 1 64.435 51.4h-.35l.006-.008q.275-.379.541-.769l.065-.1q.225-.332.444-.671l.113-.175a36.893 36.893 0 0 0 .552-.892q.193-.322.381-.65c.029-.051.06-.1.089-.152A18.749 18.749 0 0 0 76 45.193a26.7 26.7 0 0 0 8.672-9.287 39.714 39.714 0 0 0 4.72-14.516c.443-3.225-.071-5.708-1.528-7.379-1.34-1.537-3.394-2.317-6.1-2.317a23.148 23.148 0 0 0-6.292 1.044c.089-.963.165-1.887.23-2.765L75.7 9.9a24.422 24.422 0 0 1 7.616-1.438c5.839 0 8.714 3.176 8.791 9.708.219 18.473-10.7 27.053-15.407 29.884z" class="cls-1" data-name="Path 300" transform="translate(0 -.027)"/>
            </g>
        </g>
        <g id="Group_656" data-name="Group 656" transform="translate(33.42 45.807)">
            <g id="Group_655" data-name="Group 655">
                <path id="Path_301" d="M181.861 246.237l-2.2 1.453a23.5 23.5 0 0 0 2.4 3.086l1.932-1.8a20.854 20.854 0 0 1-2.132-2.739z" class="cls-1" data-name="Path 301" transform="translate(-179.656 -246.237)"/>
            </g>
        </g>
        <g id="Group_658" data-name="Group 658" transform="translate(27.018 30.388)">
            <g id="Group_657" data-name="Group 657">
                <path id="Path_302" d="M147.464 161.922l-2.574.587a51.441 51.441 0 0 0 5.023 13.847l2.3-1.3a48.858 48.858 0 0 1-4.749-13.134z" class="cls-1" data-name="Path 302" transform="translate(-144.89 -161.922)"/>
            </g>
        </g>
        <g id="Group_660" data-name="Group 660" transform="translate(75.969 56.947)">
            <g id="Group_659" data-name="Group 659">
                <path id="Path_303" d="M409.874 310.341v-2.64h-2.229v-2.229h-2.64v2.229h-2.229v2.64h2.229v2.229h2.64v-2.229z" class="cls-1" data-name="Path 303" transform="translate(-402.774 -305.473)"/>
            </g>
        </g>
        <g id="Group_662" data-name="Group 662" transform="translate(13.198 72.012)">
            <g id="Group_661" data-name="Group 661">
                <path id="Path_304" d="M82.4 391.015v-2.64h-1.87v-1.87h-2.64v1.87h-1.871v2.64h1.87v1.871h2.64v-1.87z" class="cls-1" data-name="Path 304" transform="translate(-76.016 -386.506)"/>
            </g>
        </g>
        <g id="Group_664" data-name="Group 664" transform="translate(8.481 53.528)">
            <g id="Group_663" data-name="Group 663">
                <path id="Rectangle_132" d="M0 0h2.491v2.64H0z" class="cls-1" data-name="Rectangle 132"/>
            </g>
        </g>
        <g id="Group_666" data-name="Group 666" transform="translate(26.199 61.887)">
            <g id="Group_665" data-name="Group 665">
                <path id="Rectangle_133" d="M0 0h2.491v2.64H0z" class="cls-1" data-name="Rectangle 133"/>
            </g>
        </g>
        <g id="Group_668" data-name="Group 668" transform="translate(69.148 70.387)">
            <g id="Group_667" data-name="Group 667">
                <path id="Rectangle_134" d="M0 0h2.491v2.64H0z" class="cls-1" data-name="Rectangle 134"/>
            </g>
        </g>
    </g>
</svg>
