<svg xmlns="http://www.w3.org/2000/svg" width="94.556" height="94.58" viewBox="0 0 94.556 94.58">
    <defs>
        <style>
            .cls-1{fill:#fff}
        </style>
    </defs>
    <g id="Group_10" data-name="Group 10" transform="translate(0 .04)">
        <path id="Path_4633" d="M145.556 166.723a49.749 49.749 0 0 1-1.125 5.479c-3.285 10.342-10.268 16.745-20.843 19.153a10.807 10.807 0 0 1-3.149-.294c0 2.382-.033 4.837.017 7.289a3.117 3.117 0 0 1-1 2.46q-5.419 5.356-10.776 10.769a2.983 2.983 0 0 1-2.281.958c-5.847-.03-11.694-.009-17.545-.018-1.662 0-2.648-1.343-1.974-2.658a2 2 0 0 1 2-1.043c5.047.015 10.095 0 15.144 0h1.082v-5.6c0-3.749 2.286-6.026 6.041-6.03h5.5a4.8 4.8 0 0 0 .085-.639c0-2.092 0-4.185.02-6.279a.935.935 0 0 0-.595-.992 27 27 0 0 1-15.2-19.678c-.129-.626-.216-1.263-.338-1.987h-14.77a1.859 1.859 0 0 1-2.031-1.9 1.8 1.8 0 0 1 2.031-1.782c3.448-.015 6.894 0 10.342 0h4.222V147.49h-1q-6.695 0-13.389-.009c-1.271 0-2.031-.554-2.181-1.542a1.783 1.783 0 0 1 1.738-2.133c1.108-.048 2.216-.015 3.324-.015h17.82a4.368 4.368 0 0 0 1.269-.163c2.7-.826 5.393-1.694 8.1-2.51a.777.777 0 0 0 .665-.9c-.02-4.032 0-8.065-.017-12.1a1.8 1.8 0 0 0-1.814-2.013c-4.4-.022-8.8 0-13.2 0a1.377 1.377 0 0 0-.286.094c0 .593.015 1.23 0 1.865A3.922 3.922 0 0 1 97.493 132q-11.773.031-23.545 0A3.926 3.926 0 0 1 70 128.075c-.017-.611 0-1.223 0-1.915-.353-.022-.648-.057-.944-.057H56.963c-1.621-.009-2.27.654-2.27 2.309v78.12c0 1.644.65 2.3 2.3 2.3h14.032c.277 0 .554-.009.831 0a1.827 1.827 0 0 1 1.875 1.863 1.8 1.8 0 0 1-1.91 1.821c-1.57.028-3.14 0-4.709 0h-9.973c-3.236 0-5.018-1.293-6.011-4.373a1.614 1.614 0 0 0-.127-.235v-80.89c.82-3.171 3.119-4.8 6.769-4.66 3.718.139 7.446.033 11.169.035H70c0-.75.042-1.392-.009-2.031a2.228 2.228 0 0 1 1.32-2.4h28.81a2.234 2.234 0 0 1 1.32 2.4c-.054.659 0 1.324 0 2.031H114.6a5.549 5.549 0 0 1 5.838 5.845v11.472a7.725 7.725 0 0 0 1-.286 4.279 4.279 0 0 1 3.213-.018q9.48 3.016 18.989 5.943a2.946 2.946 0 0 1 1.919 1.429zm-41.368-18.034v.611c0 5.26-.041 10.527.015 15.781a23.671 23.671 0 0 0 18.016 22.472 3.01 3.01 0 0 0 1.256.059c9.419-1.884 17.413-10.693 18.178-20.248.279-3.487.166-7 .2-10.508.028-2.7 0-5.409 0-8.1a1.89 1.89 0 0 0-.277-.146q-9.049-2.839-18.112-5.662a1.6 1.6 0 0 0-.9.013c-6.091 1.887-12.186 3.794-18.376 5.728zm-6.447-26.963H73.7c0 1.967.024 3.878-.013 5.769-.013.661.22.833.851.827 2.8-.03 5.594-.013 8.39-.013h13.921c.408 0 .9.135.9-.573-.025-1.992-.008-3.983-.008-6.01zm11.081 83.959l4.8-4.8c-.833 0-1.88-.018-2.923 0a1.759 1.759 0 0 0-1.847 1.583c-.083 1.167-.026 2.329-.026 3.225z" class="cls-1" data-name="Path 4633" transform="translate(-51 -118)"/>
        <path id="Path_4636" d="M238.921 475.867h7.843c1.37 0 2.192.681 2.216 1.8.02 1.158-.827 1.886-2.235 1.887h-15.881c-1.463 0-2.3-.868-2.131-2.14a1.8 1.8 0 0 1 1.971-1.542c2.743-.014 5.48-.005 8.217-.005z" class="cls-1" data-name="Path 4636" transform="translate(-195.891 -409.807)"/>
        <path id="Path_4637" d="M123.216 485.089l5.707-5.707c.262-.262.512-.536.794-.772a1.808 1.808 0 0 1 2.574.076 1.756 1.756 0 0 1 .026 2.5c-.482.554-1.027 1.058-1.548 1.581-1.956 1.959-3.906 3.924-5.871 5.875-1.2 1.189-2.1 1.167-3.308-.041-.933-.936-1.878-1.862-2.8-2.811a1.826 1.826 0 0 1-.111-2.77 1.863 1.863 0 0 1 2.713.166c.596.576 1.15 1.194 1.824 1.903z" class="cls-1" data-name="Path 4637" transform="translate(-105.705 -411.638)"/>
        <path id="Path_4638" d="M123.214 267.012l5.91-5.91c1.243-1.243 2.3-1.405 3.169-.491s.68 1.871-.554 3.1q-3.393 3.4-6.787 6.785c-1.25 1.243-2.128 1.239-3.374 0-.936-.933-1.878-1.862-2.8-2.809a1.817 1.817 0 0 1-.153-2.7 1.86 1.86 0 0 1 2.77.12c.591.585 1.147 1.193 1.819 1.905z" class="cls-1" data-name="Path 4638" transform="translate(-105.701 -233.832)"/>
        <path id="Path_4639" d="M123.146 375.906c2.216-2.216 4.277-4.283 6.342-6.344a1.6 1.6 0 0 1 1.9-.554 2.7 2.7 0 0 1 1.272 1.392 2.027 2.027 0 0 1-.484 1.646c-2.493 2.586-5.047 5.127-7.611 7.648a1.763 1.763 0 0 1-2.7-.011q-1.633-1.562-3.2-3.195a1.834 1.834 0 1 1 2.567-2.617c.647.611 1.223 1.297 1.914 2.035z" class="cls-1" data-name="Path 4639" transform="translate(-105.666 -322.566)"/>
        <path id="Path_4640" d="M236.975 519.706h5.9c1.38 0 2.174.685 2.177 1.823s-.822 1.858-2.164 1.862q-6.035.022-12.071 0a1.837 1.837 0 0 1-2.072-1.847c-.006-1.108.763-1.826 2.061-1.847 2.045-.004 4.11.009 6.169.009z" class="cls-1" data-name="Path 4640" transform="translate(-195.915 -445.544)"/>
        <path id="Path_4641" d="M234.975 410.635c1.381 0 2.77-.02 4.146 0a1.837 1.837 0 1 1 .042 3.666q-4.248.057-8.477 0a1.841 1.841 0 1 1 .05-3.671c1.412-.013 2.827.005 4.239.005z" class="cls-1" data-name="Path 4641" transform="translate(-195.906 -356.616)"/>
        <path id="Path_4642" d="M234.712 305.362c-1.261 0-2.523.013-3.784 0-1.38-.017-2.176-.7-2.188-1.834s.776-1.847 2.15-1.847q3.878-.022 7.757 0a1.832 1.832 0 0 1 2.057 1.767 1.856 1.856 0 0 1-2.019 1.917c-1.329.023-2.651-.003-3.973-.003z" class="cls-1" data-name="Path 4642" transform="translate(-195.914 -267.782)"/>
        <path id="Path_4643" d="M200.535 613.716a1.847 1.847 0 1 1 1.71-1.835 1.847 1.847 0 0 1-1.71 1.835z" class="cls-1" data-name="Path 4643" transform="translate(-171.302 -519.192)"/>
        <path id="Path_4647" d="M358.981 286.807v-6.187a1.949 1.949 0 0 1 1.6-2.251c4.248-1.33 8.5-2.661 12.767-3.954a2.789 2.789 0 0 1 1.518-.009c4.292 1.3 8.573 2.641 12.852 3.987a1.886 1.886 0 0 1 1.544 2.105c0 4.033.044 8.065-.013 12.1a19.926 19.926 0 0 1-14.22 18.56 3.413 3.413 0 0 1-1.788 0 19.936 19.936 0 0 1-14.255-18.721c-.022-1.878 0-3.755 0-5.633zm26.755.955l-.161-.011c0-1.784-.037-3.57.018-5.356.022-.663-.227-.9-.813-1.079-3.348-1.019-6.684-2.081-10.03-3.106a1.945 1.945 0 0 0-1.071-.042q-5.241 1.6-10.451 3.284c-.22.07-.525.38-.523.576.028 4.089-.255 8.218.231 12.254.777 6.436 4.567 10.774 10.626 13.086a1.763 1.763 0 0 0 1.141.011 15.625 15.625 0 0 0 10.446-11.917 57.839 57.839 0 0 0 .585-7.7z" class="cls-1" data-name="Path 4647" transform="translate(-302.099 -245.471)"/>
        <path id="Path_4649" d="M404.975 350.5c2.152-2.163 4.139-4.174 6.142-6.167a1.885 1.885 0 0 1 2.842-.1 1.766 1.766 0 0 1-.059 2.5q-3.78 3.845-7.627 7.627a1.758 1.758 0 0 1-2.5 0q-2.216-2.142-4.366-4.368a1.758 1.758 0 0 1 .05-2.5 1.786 1.786 0 0 1 2.567-.048c.992.95 1.917 1.984 2.951 3.056z" class="cls-1" data-name="Path 4649" transform="translate(-334.658 -301.998)"/>
    </g>
</svg>
