<svg xmlns="http://www.w3.org/2000/svg" width="86.712" height="92.906" viewBox="0 0 86.712 92.906">
    <defs>
        <style>
            .cls-1{fill:#fff}
        </style>
    </defs>
    <g id="loan_1_" data-name="loan (1)">
        <path id="Path_4610" d="M152 112h12.387v3.1H152zm0 0" class="cls-1" data-name="Path 4610" transform="translate(-122.58 -90.322)"/>
        <path id="Path_4611" d="M152 80h6.194v3.1H152zm0 0" class="cls-1" data-name="Path 4611" transform="translate(-122.58 -64.516)"/>
        <path id="Path_4612" d="M200 80h21.678v3.1H200zm0 0" class="cls-1" data-name="Path 4612" transform="translate(-161.289 -64.516)"/>
        <path id="Path_4613" d="M232 112h15.484v3.1H232zm0 0" class="cls-1" data-name="Path 4613" transform="translate(-187.096 -90.322)"/>
        <path id="Path_4614" d="M204.387 280a12.387 12.387 0 1 0 12.387 12.387A12.387 12.387 0 0 0 204.387 280zm0 21.678a9.291 9.291 0 1 1 9.291-9.291 9.291 9.291 0 0 1-9.291 9.291zm0 0" class="cls-1" data-name="Path 4614" transform="translate(-154.838 -225.805)"/>
        <path id="Path_4615" d="M356.7 278.069a6.192 6.192 0 0 1-4.831-4.831 1.549 1.549 0 0 0-1.52-1.238H344v3.1h5.175a9.272 9.272 0 0 0 5.664 5.664v10.346a9.272 9.272 0 0 0-5.664 5.664H344v3.1h6.349a1.549 1.549 0 0 0 1.517-1.238 6.192 6.192 0 0 1 4.834-4.836 1.549 1.549 0 0 0 1.238-1.517v-12.7a1.549 1.549 0 0 0-1.238-1.514zm0 0" class="cls-1" data-name="Path 4615" transform="translate(-277.418 -219.353)"/>
        <path id="Path_4616" d="M99.1 291.11v-10.349a9.272 9.272 0 0 0 5.664-5.664h5.175V272h-6.349a1.549 1.549 0 0 0-1.517 1.238 6.192 6.192 0 0 1-4.831 4.831A1.549 1.549 0 0 0 96 279.587v12.7a1.549 1.549 0 0 0 1.238 1.517 6.192 6.192 0 0 1 4.831 4.831 1.549 1.549 0 0 0 1.517 1.238h6.349v-3.1h-5.175a9.272 9.272 0 0 0-5.66-5.663zm0 0" class="cls-1" data-name="Path 4616" transform="translate(-77.419 -219.353)"/>
        <path id="Path_4617" d="M82.067 46.453H71.228V7.742A7.751 7.751 0 0 0 63.486 0H7.742A7.751 7.751 0 0 0 0 7.742v77.421a7.751 7.751 0 0 0 7.742 7.742h55.744a7.756 7.756 0 0 0 7.587-6.194h10.994a4.646 4.646 0 0 0 4.645-4.645V51.1a4.646 4.646 0 0 0-4.645-4.647zM63.486 89.809H7.742A4.646 4.646 0 0 1 3.1 85.163V7.742A4.646 4.646 0 0 1 7.742 3.1h55.744a4.646 4.646 0 0 1 4.645 4.645v38.708h-51.1a4.646 4.646 0 0 0-4.644 4.647v30.967a4.646 4.646 0 0 0 4.645 4.645h50.814a4.646 4.646 0 0 1-4.36 3.1zm20.13-7.742a1.549 1.549 0 0 1-1.548 1.548H17.033a1.549 1.549 0 0 1-1.548-1.548V51.1a1.549 1.549 0 0 1 1.548-1.548h65.034a1.549 1.549 0 0 1 1.548 1.548zm0 0" class="cls-1" data-name="Path 4617"/>
        <path id="Path_4618" d="M160 336h3.1v3.1H160zm0 0" class="cls-1" data-name="Path 4618" transform="translate(-129.031 -270.966)"/>
        <path id="Path_4619" d="M336 336h3.1v3.1H336zm0 0" class="cls-1" data-name="Path 4619" transform="translate(-270.966 -270.966)"/>
        <path id="Path_4620" d="M56 160h49.55v3.1H56zm0 0" class="cls-1" data-name="Path 4620" transform="translate(-45.161 -129.031)"/>
        <path id="Path_4621" d="M56 192h12.387v3.1H56zm0 0" class="cls-1" data-name="Path 4621" transform="translate(-45.161 -154.838)"/>
        <path id="Path_4622" d="M136 192h34.065v3.1H136zm0 0" class="cls-1" data-name="Path 4622" transform="translate(-109.677 -154.838)"/>
    </g>
</svg>
