<svg xmlns="http://www.w3.org/2000/svg" width="94.083" height="94.079" viewBox="0 0 94.083 94.079">
    <defs>
        <style>
            .cls-1{fill:#fff}
        </style>
    </defs>
    <g id="_562678" data-name="562678" transform="translate(.02 -.79)">
        <path id="Path_4597" d="M101.585 193.279c.161-.216.308-.446.487-.645a1.78 1.78 0 0 1 3.05.6 4.09 4.09 0 0 1 .142 1.268q.014 9.045 0 18.092v1.031h3.3v-19.053a6.093 6.093 0 0 1 .034-.919 1.814 1.814 0 0 1 3.613 0 5.79 5.79 0 0 1 .028.825v19.141h3.307V194.6a6.766 6.766 0 0 1 .028-.919 1.814 1.814 0 0 1 3.622.016 7.161 7.161 0 0 1 .025.919V213.6h3.307v-19.419c.028-1.325.76-2.187 1.854-2.175s1.821.87 1.821 2.207c0 7.318.06 14.635-.023 21.95a10.875 10.875 0 0 1-6.109 10.039 1.215 1.215 0 0 0-.675 1.311q.018 26.266.014 52.532a5.59 5.59 0 0 1-3.243 5.5c-.434.211-.9.351-1.355.524h-1.837c-3.76-1.541-4.594-2.8-4.594-6.934q0-25.786.023-51.574a1.57 1.57 0 0 0-.877-1.47 22.15 22.15 0 0 1-3.422-2.862 11.506 11.506 0 0 1-2.526-5.7zm3.767 24.1a7.587 7.587 0 0 0 4.807 5.93c1.658.664 1.9.99 1.9 2.786v53.63a5.611 5.611 0 0 0 .1 1.275 1.78 1.78 0 0 0 3.468 0 5.59 5.59 0 0 0 .1-1.272v-53.814c0-1.548.322-1.941 1.727-2.545a9.926 9.926 0 0 0 2.3-1.309 6.89 6.89 0 0 0 2.625-4.676z" class="cls-1" data-name="Path 4597" transform="translate(-101.6 -191.2)"/>
        <path id="Path_4598" d="M446.637 286.093c-1.541-.5-3.05-1.148-3.751-2.7a8.478 8.478 0 0 1-.806-3.328c-.067-8.574-.046-17.148-.03-25.724a1.789 1.789 0 0 0-.593-1.44 82.972 82.972 0 0 1-3.046-3.062 9.187 9.187 0 0 1-2.616-6.477c-.018-8.144-.149-16.3.041-24.435.257-11.075 5.053-19.856 14.022-26.358a1.941 1.941 0 0 1 2.216-.328 2.022 2.022 0 0 1 .994 2.019q-.014 42.993-.011 85.989a5.476 5.476 0 0 1-4.18 5.659 3.413 3.413 0 0 0-.409.181zm2.756-88.447c-.287.253-.425.365-.554.487a28.746 28.746 0 0 0-9.357 21.576c-.055 7.715 0 15.427-.018 23.142a6.521 6.521 0 0 0 2.044 4.929c1.034 1 2.01 2.067 3.066 3.036a3.379 3.379 0 0 1 1.162 2.756c-.055 3.059-.018 6.121-.018 9.187v17.456c0 1.334.744 2.193 1.837 2.2s1.814-.861 1.837-2.191v-82.577z" class="cls-1" data-name="Path 4598" transform="translate(-359.007 -191.225)"/>
        <path id="Path_4600" d="M218.9 283.21a26.089 26.089 0 1 1-26.091 26.064A26.168 26.168 0 0 1 218.9 283.21zm0 48.5a22.412 22.412 0 1 0-22.417-22.456 22.5 22.5 0 0 0 22.417 22.459z" class="cls-1" data-name="Path 4600" transform="translate(-171.876 -261.468)"/>
        <path id="Path_4601" d="M240.039 494.973a35.527 35.527 0 0 1-18.781-5.37c-1.148-.712-1.486-1.736-.9-2.694a1.875 1.875 0 0 1 2.818-.432 30.338 30.338 0 0 0 12.315 4.474q16.971 2.067 28.349-10.747c.2-.23.386-.475.593-.7a1.878 1.878 0 0 1 2.756-.416 1.8 1.8 0 0 1 .057 2.756 49.713 49.713 0 0 1-3.976 4.189 34.592 34.592 0 0 1-23.231 8.94z" class="cls-1" data-name="Path 4601" transform="translate(-192.879 -412.023)"/>
        <path id="Path_4602" d="M249.789 243.91a35.079 35.079 0 0 1 25.228 10.712 1.9 1.9 0 0 1 .2 2.775 1.812 1.812 0 0 1-2.7-.1 35.471 35.471 0 0 0-6.661-5.283 31.308 31.308 0 0 0-18.73-4.284 32.327 32.327 0 0 0-11.169 3.041 2.642 2.642 0 0 1-1.9.2 2.308 2.308 0 0 1-1.1-1.5 1.591 1.591 0 0 1 1.114-1.808c1.971-.818 3.934-1.686 5.972-2.331a32.418 32.418 0 0 1 9.746-1.422z" class="cls-1" data-name="Path 4602" transform="translate(-202.761 -231.195)"/>
        <path id="Path_4603" d="M199.764 493.135a1.785 1.785 0 0 1-1.775 1.819 1.932 1.932 0 0 1-1.909-1.837 1.874 1.874 0 0 1 1.837-1.876 1.909 1.909 0 0 1 1.847 1.894z" class="cls-1" data-name="Path 4603" transform="translate(-174.395 -421.718)"/>
        <path id="Path_4607" d="M232.983 343.083a16.75 16.75 0 0 1 9.963-14.2 1.841 1.841 0 1 1 1.684 3.259c-.186.108-.377.2-.567.3a12.688 12.688 0 0 0-6.732 7.754 19.811 19.811 0 0 0-.675 3.675c-.179 1.465-.808 2.267-1.911 2.235-1.158-.033-1.833-.942-1.762-3.023z" class="cls-1" data-name="Path 4607" transform="translate(-202.818 -296.453)"/>
        <path id="Path_4608" d="M300 326.917a1.812 1.812 0 0 1-1.8-1.909 1.837 1.837 0 0 1 1.876-1.75 1.9 1.9 0 0 1 1.826 1.826 1.872 1.872 0 0 1-1.902 1.833z" class="cls-1" data-name="Path 4608" transform="translate(-253.06 -292.318)"/>
    </g>
</svg>
