<svg xmlns="http://www.w3.org/2000/svg" width="92.814" height="94.933" viewBox="0 0 92.814 94.933">
    <defs>
        <style>
            .cls-1{opacity:.9}.cls-2{fill:#fff}
        </style>
    </defs>
    <g id="bus_1_" class="cls-1" data-name="bus (1)">
        <g id="Group_644" data-name="Group 644" transform="translate(45.011)">
            <g id="Group_643" data-name="Group 643">
                <path id="Path_287" d="M250.453.493a1.683 1.683 0 0 0-2.873 1.19 1.683 1.683 0 1 0 2.873-1.19z" class="cls-2" data-name="Path 287" transform="translate(-247.58)"/>
            </g>
        </g>
        <g id="Group_646" data-name="Group 646" transform="translate(0 1.967)">
            <g id="Group_645" data-name="Group 645">
                <path id="Path_288" d="M89.189 17.548v-5.112A5 5 0 0 0 84.2 7.442h-3.145A9.081 9.081 0 0 0 72.141 0h-17.7a1.816 1.816 0 0 0 0 3.631h17.7a5.449 5.449 0 0 1 5.439 5.448v5.447h-17.4V9.079a1.814 1.814 0 0 0-1.813-1.816H34.443a1.814 1.814 0 0 0-1.813 1.816v5.447H15.251V9.079a5.449 5.449 0 0 1 5.438-5.447h18.195a1.816 1.816 0 0 0 0-3.631H20.689a9.081 9.081 0 0 0-8.913 7.442H8.612a5 5 0 0 0-4.987 4.995v5.111A5.455 5.455 0 0 0 0 22.683v6.785a5.438 5.438 0 1 0 10.877 0v-6.785a5.455 5.455 0 0 0-3.626-5.135v-5.112a1.364 1.364 0 0 1 1.361-1.363h3.014v60.286a9.09 9.09 0 0 0 5.263 8.241v6.468a6.889 6.889 0 1 0 13.777 0v-5.631h31.528v5.629a6.889 6.889 0 1 0 13.777 0v-6.482a9.09 9.09 0 0 0 5.234-8.226V11.073h3a1.364 1.364 0 0 1 1.361 1.363v5.111a5.455 5.455 0 0 0-3.626 5.135v6.785a5.438 5.438 0 1 0 10.877 0v-6.784a5.456 5.456 0 0 0-3.628-5.135zM7.251 29.468a1.813 1.813 0 1 1-3.626 0v-6.785a1.813 1.813 0 1 1 3.626 0zm51.962-11.311l-5.647 5.656a1.814 1.814 0 1 0 2.564 2.568l8.211-8.224h10.666l-26.786 26.83v-26.83zm-22.957-7.263h20.3v3.631h-20.3zm.595 31.7a1.811 1.811 0 0 0-2.564 0l-11.268 11.29h-1.162l-5.607-5.616L44.6 19.877v34.007H28.146l8.7-8.719a1.818 1.818 0 0 0 .004-2.565zm-21.6-24.44h25.934L15.251 44.133zm11.79 67.909a3.263 3.263 0 1 1-6.526 0v-5.626h6.526zm45.3 0a3.263 3.263 0 1 1-6.526 0v-5.626h6.526zm5.239-14.704a5.449 5.449 0 0 1-5.438 5.447H20.689a5.449 5.449 0 0 1-5.438-5.447V52.4l4.573 4.581a1.811 1.811 0 0 0 1.282.532h50.6a1.811 1.811 0 0 0 1.282-.532l4.59-4.6zm0-24.108l-6.622 6.633H48.221v-3.76L77.58 20.716zm11.609-17.783a1.813 1.813 0 1 1-3.626 0v-6.785a1.813 1.813 0 1 1 3.626 0z" class="cls-2" data-name="Path 288"/>
            </g>
        </g>
        <g id="Group_648" data-name="Group 648" transform="translate(20.138 62.184)">
            <g id="Group_647" data-name="Group 647">
                <path id="Path_289" d="M115.093 339.88a5.049 5.049 0 1 0 5.049 5.049 5.055 5.055 0 0 0-5.049-5.049zm0 6.732a1.683 1.683 0 1 1 1.683-1.683 1.685 1.685 0 0 1-1.683 1.683z" class="cls-2" data-name="Path 289" transform="translate(-110.044 -339.88)"/>
            </g>
        </g>
        <g id="Group_650" data-name="Group 650" transform="translate(62.578 62.184)">
            <g id="Group_649" data-name="Group 649">
                <path id="Path_290" d="M347 339.88a5.049 5.049 0 1 0 5.049 5.049A5.055 5.055 0 0 0 347 339.88zm0 6.732a1.683 1.683 0 1 1 1.683-1.683 1.685 1.685 0 0 1-1.683 1.683z" class="cls-2" data-name="Path 290" transform="translate(-341.956 -339.88)"/>
            </g>
        </g>
        <g id="Group_652" data-name="Group 652" transform="translate(35.988 62.184)">
            <g id="Group_651" data-name="Group 651">
                <path id="Path_291" d="M213.269 339.88h-17.5a1.683 1.683 0 0 0-1.683 1.683v6.732a1.683 1.683 0 0 0 1.683 1.683h17.5a1.683 1.683 0 0 0 1.683-1.683v-6.732a1.683 1.683 0 0 0-1.683-1.683zm-1.683 6.732h-14.137v-3.366h14.137z" class="cls-2" data-name="Path 291" transform="translate(-194.083 -339.88)"/>
            </g>
        </g>
    </g>
</svg>
