<svg xmlns="http://www.w3.org/2000/svg" id="instagram-logo" width="22.819" height="22.819" viewBox="0 0 22.819 22.819">
    <defs>
        <style>
            .cls-1{fill:#fff}
        </style>
    </defs>
    <g id="post-instagram">
        <path id="Path_621" d="M20.537 0H2.282A2.289 2.289 0 0 0 0 2.282v18.255a2.289 2.289 0 0 0 2.282 2.282h18.255a2.289 2.289 0 0 0 2.282-2.282V2.282A2.289 2.289 0 0 0 20.537 0zM11.41 6.846a4.564 4.564 0 1 1-4.564 4.564 4.577 4.577 0 0 1 4.564-4.564zM2.852 20.537a.539.539 0 0 1-.57-.57v-9.7h2.4a3.881 3.881 0 0 0-.114 1.141 6.846 6.846 0 0 0 13.692 0 3.882 3.882 0 0 0-.114-1.141h2.4v9.7a.539.539 0 0 1-.57.57zm17.685-15.4a.539.539 0 0 1-.57.57h-2.282a.539.539 0 0 1-.57-.57V2.852a.539.539 0 0 1 .57-.57h2.282a.539.539 0 0 1 .57.57z" class="cls-1" data-name="Path 621"/>
    </g>
</svg>
