<svg xmlns="http://www.w3.org/2000/svg" id="linkedin" width="23.58" height="23.58" viewBox="0 0 23.58 23.58">
    <defs>
        <style>
            .cls-1{fill:#fff}
        </style>
    </defs>
    <g id="Group_296" data-name="Group 296" transform="translate(0 7.369)">
        <g id="Group_295" data-name="Group 295">
            <path id="Rectangle_34" d="M0 0h5.273v16.211H0z" class="cls-1" data-name="Rectangle 34"/>
        </g>
    </g>
    <g id="Group_298" data-name="Group 298" transform="translate(7.369 7.369)">
        <g id="Group_297" data-name="Group 297">
            <path id="Path_620" d="M172.267 160.19c-.056-.018-.109-.037-.168-.053s-.141-.029-.214-.041a4.725 4.725 0 0 0-.946-.1 7.326 7.326 0 0 0-5.666 3.1V160H160v16.211h5.273v-8.842s3.985-5.55 5.666-1.474v10.316h5.272v-10.94a5.258 5.258 0 0 0-3.944-5.081z" class="cls-1" data-name="Path 620" transform="translate(-160 -160)"/>
        </g>
    </g>
    <g id="Group_300" data-name="Group 300">
        <g id="Group_299" data-name="Group 299">
            <circle id="Ellipse_480" cx="2.579" cy="2.579" r="2.579" class="cls-1" data-name="Ellipse 480"/>
        </g>
    </g>
</svg>
