<svg xmlns="http://www.w3.org/2000/svg" width="27.79" height="22.58" viewBox="0 0 27.79 22.58">
    <defs>
        <style>
            .cls-1{fill:#fff}
        </style>
    </defs>
    <g id="twitter_1_" data-name="twitter (1)" transform="translate(0 -48)">
        <g id="Group_301" data-name="Group 301" transform="translate(0 48)">
            <path id="Path_622" d="M27.79 50.673a11.878 11.878 0 0 1-3.283.9 5.665 5.665 0 0 0 2.506-3.149A11.386 11.386 0 0 1 23.4 49.8a5.7 5.7 0 0 0-9.855 3.9 5.866 5.866 0 0 0 .132 1.3 16.126 16.126 0 0 1-11.742-5.961 5.7 5.7 0 0 0 1.751 7.615 5.626 5.626 0 0 1-2.574-.7v.063a5.723 5.723 0 0 0 4.565 5.6 5.686 5.686 0 0 1-1.494.188A5.037 5.037 0 0 1 3.1 61.7a5.751 5.751 0 0 0 5.324 3.969A11.448 11.448 0 0 1 1.363 68.1 10.672 10.672 0 0 1 0 68.023a16.039 16.039 0 0 0 8.74 2.557c10.484 0 16.216-8.684 16.216-16.212 0-.252-.009-.5-.021-.736a11.366 11.366 0 0 0 2.855-2.959z" class="cls-1" data-name="Path 622" transform="translate(0 -48)"/>
        </g>
    </g>
</svg>
